/* XPM */
static char *food_merchant_spritesheet[] = {
/* columns rows colors chars-per-pixel */
"120 90 15 1 ",
"  c #4C2B10",
". c #5A3714",
"X c #114533",
"o c #6B441B",
"O c #8A622B",
"+ c #8F682E",
"@ c #926C2F",
"# c #997333",
"$ c #B9954A",
"% c #C2C187",
"& c #D3D297",
"* c #E2C58B",
"= c #F0D399",
"- c #E1E0A4",
"; c None",
/* pixels */
";;;;;;;;;;;;;;;;;;;;;;;;;;;;;;;;;;;;;;;;;;;;;;;;;;;;;;;;;;;;;;;;;;;;;;;;;;;;;;;;;;;;;;;;;;;;;;;;;;;;;;;;;;;;;;;;;;;;;;;;",
";;;;;;;;;;;;;;;;;;;;;;;;;;;;;;;;;;;;;;;;;;;;;;;;;;;;;;;;;;;;;;;;;;;;;;;;;;;;;;;;;;;;;;;;;;;;;;;;;;;;;;;;;;;;;;;;;;;;;;;;",
";;;;;;;;;;;;------;;;;;;;;;;;;;;;;;;;;;;;;;;;;;;;;;;;;;;;;;;;;;;;;;;;;;;------;;;;;;;;;;;;;;;;;;;;;;;;;;;;;;;;;;;;;;;;;;",
";;;;;;;;;;;&&----&&;;;;;;;;;;;;;;;;;;;;;;;------;;;;;;;;;;;;;;;;;;;;;;;&&----&&;;;;;;;;;;;;;;;;;;;;;;;------;;;;;;;;;;;;",
";;;;;;;;;;&&------&&;;;;;;;;;;;;;;;;;;;;;&&----&&;;;;;;;;;;;;;;;;;;;;;&&------&&;;;;;;;;;;;;;;;;;;;;;&&----&&;;;;;;;;;;;",
";;;;;;;;;;&--------%;;;;;;;;;;;;;;;;;;;;&&------&&;;;;;;;;;;;;;;;;;;;;&--------%;;;;;;;;;;;;;;;;;;;;&&------&&;;;;;;;;;;",
";;;;;;;;;;----------;;;;;;;;;;;;;;;;;;;;&--------%;;;;;;;;;;;;;;;;;;;;----------;;;;;;;;;;;;;;;;;;;;&--------%;;;;;;;;;;",
";;;;;;;;;----%%%%----;;;;;;;;;;;;;;;;;;;----------;;;;;;;;;;;;;;;;;;;----%%%%----;;;;;;;;;;;;;;;;;;;----------;;;;;;;;;;",
";;;;;;;;;-&%.    .%&-;;;;;;;;;;;;;;;;;;----%%%%----;;;;;;;;;;;;;;;;;;-&%.    .%&-;;;;;;;;;;;;;;;;;;----%%%%----;;;;;;;;;",
";;;;;;;;--% *.  .* %--;;;;;;;;;;;;;;;;;-&%.    .%&-;;;;;;;;;;;;;;;;;--% *.  .* %--;;;;;;;;;;;;;;;;;-&%.    .%&-;;;;;;;;;",
";;;;;;;;-&%.******. &-;;;;;;;;;;;;;;;;--% *.  .* %--;;;;;;;;;;;;;;;;-&%.******. &-;;;;;;;;;;;;;;;;--% *.  .* %--;;;;;;;;",
";;;;;;;;-& *  ==  * &-;;;;;;;;;;;;;;;;-&%.******. &-;;;;;;;;;;;;;;;;-& *  ==  * &-;;;;;;;;;;;;;;;;-&%.******. &-;;;;;;;;",
";;;;;;;;;&%==X==X==*%;;;;;;;;;;;;;;;;;-& *  ==  * &-;;;;;;;;;;;;;;;;;&%==X==X==*%;;;;;;;;;;;;;;;;;-& *  ==  * &-;;;;;;;;",
";;;;;;;;;;%========%;;;;;;;;;;;;;;;;;;;&%==X==X==*%;;;;;;;;;;;;;;;;;;;%========%;;;;;;;;;;;;;;;;;;;&%========*%;;;;;;;;;",
";;;;;;;;;;;;======;;;;;;;;;;;;;;;;;;;;;;%========%;;;;;;;;;;;;;;;;;;;;;;======;;;;;;;;;;;;;;;;;;;;;;%========%;;;;;;;;;;",
";;;;;;;;;OOOo====oOOO;;;;;;;;;;;;;;;;;;OOO======OOO;;;;;;;;;;;;;;;;;;OOOo====oOOO;;;;;;;;;;;;;;;;;;OOO======OOO;;;;;;;;;",
";;;;;;;;$#OOOooooOOO$$;;;;;;;;;;;;;;;;$#OOO====OOO$$;;;;;;;;;;;;;;;;$#OOOooooOOO$$;;;;;;;;;;;;;;;;$#OOO====OOO$$;;;;;;;;",
";;;;;;;$$$#OOOooOOO#$$$;;;;;;;;;;;;;;$$$#OOOooOOO#$$$;;;;;;;;;;;;;;$$$#OOOooOOO#$$$;;;;;;;;;;;;;;$$$#OOOooOOO#$$$;;;;;;;",
";;;;;;;$$$##OOOOOO##$$$;;;;;;;;;;;;;;$$$##OOOOOO##$$$;;;;;;;;;;;;;;$$$##OOOOOO##$$$;;;;;;;;;;;;;;$$$##OOOOOO##$$$;;;;;;;",
";;;;;;;$$$###OOOO###$$$;;;;;;;;;;;;;;$$$###OOOO###$$$;;;;;;;;;;;;;;$$$###OOOO###$$$;;;;;;;;;;;;;;$$$###OOOO###$$$;;;;;;;",
";;;;;;;$$$##########$$$;;;;;;;;;;;;;;$$$##########$$$;;;;;;;;;;;;;;$$$##########$$$;;;;;;;;;;;;;;$$$##########$$$;;;;;;;",
";;;;;;;$$$@###@O###@$$$;;;;;;;;;;;;;;$$$@###@O###@$$$;;;;;;;;;;;;;;$$$@###@O###@$$$;;;;;;;;;;;;;;$$$@###@O###@$$$;;;;;;;",
";;;;;;;$$$;@@@@@@@@;$$$;;;;;;;;;;;;;;$$$;@@@@@@@@;$$$;;;;;;;;;;;;;;$$$;@@@@@@@@;$$$;;;;;;;;;;;;;;$$$;@@@@@@@@;$$$;;;;;;;",
";;;;;;;$$$;$+@@O@@$;$$$;;;;;;;;;;;;;;$$$;$+@@O@@$;$$$;;;;;;;;;;;;;;$$$;$+@@O@@$;$$$;;;;;;;;;;;;;;$$$;$+@@O@@$;$$$;;;;;;;",
";;;;;;;$$$;o$$$$$$o;$$$;;;;;;;;;;;;;;$$$;o$$$$$$o;$$$;;;;;;;;;;;;;;$$$;o$$$$$$o;$$$;;;;;;;;;;;;;;$$$;o$$$$$$o;$$$;;;;;;;",
";;;;;;;$*==#oooooo#==*$;;;;;;;;;;;;;;$*==#oooooo#==*$;;;;;;;;;;;;;;$*==#oooooo#==*$;;;;;;;;;;;;;;$*==#oooooo#==*$;;;;;;;",
";;;;;;;;*===;;;;;;===*;;;;;;;;;;;;;;;;*===;;;;;;===*;;;;;;;;;;;;;;;;*===;;;;;;===*;;;;;;;;;;;;;;;;*===;;;;;;===*;;;;;;;;",
";;;;;;;;**==;;;;;;==**;;;;;;;;;;;;;;;;**==;;;;;;==**;;;;;;;;;;;;;;;;**==;;;;;;==**;;;;;;;;;;;;;;;;**==;;;;;;==**;;;;;;;;",
";;;;;;;;;***;;;;;;***;;;;;;;;;;;;;;;;;;***;;;;;;***;;;;;;;;;;;;;;;;;;***;;;;;;***;;;;;;;;;;;;;;;;;;***;;;;;;***;;;;;;;;;",
";;;;;;;;;;;;;;;;;;;;;;;;;;;;;;;;;;;;;;;;;;;;;;;;;;;;;;;;;;;;;;;;;;;;;;;;;;;;;;;;;;;;;;;;;;;;;;;;;;;;;;;;;;;;;;;;;;;;;;;;",
";;;;;;;;;;;;;;;;;;;;;;;;;;;;;;;;;;;;;;;;;;;;;;;;;;;;;;;;;;;;;;;;;;;;;;;;;;;;;;;;;;;;;;;;;;;;;;;;;;;;;;;;;;;;;;;;;;;;;;;;",
";;;;;;;;;;;;;;;;;;;;;;;;;;;;;;;;;;;;;;;;;;;;;;;;;;;;;;;;;;;;;;;;;;;;;;;;;;;;;;;;;;;;;;;;;;;;;;;;;;;;;;;;;;;;;;;;;;;;;;;;",
";;;;;;;;;;;;;;;;;;;;;;;;;;;;;;;;;;;;;;;;;;;;;;;;;;;;;;;;;;;;;;;;;;;;;;;;;;;;;;;;;;;;;;;;;;;;;;;;;;;;;;;;;;;;;;;;;;;;;;;;",
";;;;;;;;;;-------;;;;;;;;;;;;;;;;;;;;;;;;;;;;;;;;;;;;;;;;;;;;;;;;;;;;;-------;;;;;;;;;;;;;;;;;;;;;;;;;;;;;;;;;;;;;;;;;;;",
";;;;;;;;;----&--&&;;;;;;;;;;;;;;;;;;;;;;-------;;;;;;;;;;;;;;;;;;;;;;----&--&&;;;;;;;;;;;;;;;;;;;;;;-------;;;;;;;;;;;;;",
";;;;;;;;;&&&&-----&;;;;;;;;;;;;;;;;;;;;----&--&&;;;;;;;;;;;;;;;;;;;;;&&&&-----&;;;;;;;;;;;;;;;;;;;;----&--&&;;;;;;;;;;;;",
";;;;;;;;&&&---------;;;;;;;;;;;;;;;;;;;&&&&-----&;;;;;;;;;;;;;;;;;;;&&&---------;;;;;;;;;;;;;;;;;;;&&&&-----&;;;;;;;;;;;",
";;;;;;;;&&----%%%---;;;;;;;;;;;;;;;;;;&&&---------;;;;;;;;;;;;;;;;;;&&----%%%---;;;;;;;;;;;;;;;;;;&&&---------;;;;;;;;;;",
";;;;;;;;&---%.   .%--;;;;;;;;;;;;;;;;;&&----%%%---;;;;;;;;;;;;;;;;;;&---%.   .%--;;;;;;;;;;;;;;;;;&&----%%%---;;;;;;;;;;",
";;;;;;;;&--%.*. .*.%-;;;;;;;;;;;;;;;;;&---%.   .%--;;;;;;;;;;;;;;;;;&--%.*. .*.%-;;;;;;;;;;;;;;;;;&---%.   .%--;;;;;;;;;",
";;;;;;;;&--..******%-;;;;;;;;;;;;;;;;;&--%.*. .*.%-;;;;;;;;;;;;;;;;;&--..******%-;;;;;;;;;;;;;;;;;&--%.*. .*.%-;;;;;;;;;",
";;;;;;;;&--.=  =  =%-;;;;;;;;;;;;;;;;;&--..******%-;;;;;;;;;;;;;;;;;&--.=  =  =%-;;;;;;;;;;;;;;;;;&--..******%-;;;;;;;;;",
";;;;;;;;;&-*==X==X=%;;;;;;;;;;;;;;;;;;&--.=  =  =%-;;;;;;;;;;;;;;;;;;&-*==X==X=%;;;;;;;;;;;;;;;;;;&--.=  =  =%-;;;;;;;;;",
";;;;;;;;;;&&=======;;;;;;;;;;;;;;;;;;;;&-*==X==X=%;;;;;;;;;;;;;;;;;;;;&&=======;;;;;;;;;;;;;;;;;;;;&-*=======%;;;;;;;;;;",
";;;;;;;;;;;&======;;;;;;;;;;;;;;;;;;;;;;&&=======;;;;;;;;;;;;;;;;;;;;;;&======;;;;;;;;;;;;;;;;;;;;;;&&=======;;;;;;;;;;;",
";;;;;;;;;OOOo====oOOO;;;;;;;;;;;;;;;;;;OO&======OOO;;;;;;;;;;;;;;;;;;OOOo====oOOO;;;;;;;;;;;;;;;;;;OO&======OOO;;;;;;;;;",
";;;;;;;;$#OOOooooOOO$$;;;;;;;;;;;;;;;;$#OOO====OOO$$;;;;;;;;;;;;;;;;$#OOOooooOOO$$;;;;;;;;;;;;;;;;$#OOO====OOO$$;;;;;;;;",
";;;;;;;$$$#OOOooOOO#$$$;;;;;;;;;;;;;;$$$#OOOooOOO#$$$;;;;;;;;;;;;;;$$$#OOOooOOO#$$$;;;;;;;;;;;;;;$$$#OOOooOOO#$$$;;;;;;;",
";;;;;;;$$$##OOOOOO##$$$;;;;;;;;;;;;;;$$$##OOOOOO##$$$;;;;;;;;;;;;;;$$$##OOOOOO##$$$;;;;;;;;;;;;;;$$$##OOOOOO##$$$;;;;;;;",
";;;;;;;$$$###OOOO###$$$;;;;;;;;;;;;;;$$$###OOOO###$$$;;;;;;;;;;;;;;$$$###OOOO###$$$;;;;;;;;;;;;;;$$$###OOOO###$$$;;;;;;;",
";;;;;;;$$$##########$$$;;;;;;;;;;;;;;$$$##########$$$;;;;;;;;;;;;;;$$$##########$$$;;;;;;;;;;;;;;$$$##########$$$;;;;;;;",
";;;;;;;$$$@###@O###@$$$;;;;;;;;;;;;;;$$$@###@O###@$$$;;;;;;;;;;;;;;$$$@###@O###@$$$;;;;;;;;;;;;;;$$$@###@O###@$$$;;;;;;;",
";;;;;;;$$$;@@@@@@@@;$$$;;;;;;;;;;;;;;$$$;@@@@@@@@;$$$;;;;;;;;;;;;;;$$$;@@@@@@@@;$$$;;;;;;;;;;;;;;$$$;@@@@@@@@;$$$;;;;;;;",
";;;;;;;$$$;$+@@O@@$;$$$;;;;;;;;;;;;;;$$$;$+@@O@@$;$$$;;;;;;;;;;;;;;$$$;$+@@O@@$;$$$;;;;;;;;;;;;;;$$$;$+@@O@@$;$$$;;;;;;;",
";;;;;;;$$$;o$$$$$$o;$$$;;;;;;;;;;;;;;$$$;o$$$$$$o;$$$;;;;;;;;;;;;;;$$$;o$$$$$$o;$$$;;;;;;;;;;;;;;$$$;o$$$$$$o;$$$;;;;;;;",
";;;;;;;$*==#oooooo#==*$;;;;;;;;;;;;;;$*==#oooooo#==*$;;;;;;;;;;;;;;$*==#oooooo#==*$;;;;;;;;;;;;;;$*==#oooooo#==*$;;;;;;;",
";;;;;;;;*===;;;;;;===*;;;;;;;;;;;;;;;;*===;;;;;;===*;;;;;;;;;;;;;;;;*===;;;;;;===*;;;;;;;;;;;;;;;;*===;;;;;;===*;;;;;;;;",
";;;;;;;;**==;;;;;;==**;;;;;;;;;;;;;;;;**==;;;;;;==**;;;;;;;;;;;;;;;;**==;;;;;;==**;;;;;;;;;;;;;;;;**==;;;;;;==**;;;;;;;;",
";;;;;;;;;***;;;;;;***;;;;;;;;;;;;;;;;;;***;;;;;;***;;;;;;;;;;;;;;;;;;***;;;;;;***;;;;;;;;;;;;;;;;;;***;;;;;;***;;;;;;;;;",
";;;;;;;;;;;;;;;;;;;;;;;;;;;;;;;;;;;;;;;;;;;;;;;;;;;;;;;;;;;;;;;;;;;;;;;;;;;;;;;;;;;;;;;;;;;;;;;;;;;;;;;;;;;;;;;;;;;;;;;;",
";;;;;;;;;;;;;;;;;;;;;;;;;;;;;;;;;;;;;;;;;;;;;;;;;;;;;;;;;;;;;;;;;;;;;;;;;;;;;;;;;;;;;;;;;;;;;;;;;;;;;;;;;;;;;;;;;;;;;;;;",
";;;;;;;;;;;;;;;;;;;;;;;;;;;;;;;;;;;;;;;;;;;;;;;;;;;;;;;;;;;;;;;;;;;;;;;;;;;;;;;;;;;;;;;;;;;;;;;;;;;;;;;;;;;;;;;;;;;;;;;;",
";;;;;;;;;;;;;;;;;;;;;;;;;;;;;;;;;;;;;;;;;;;;;;;;;;;;;;;;;;;;;;;;;;;;;;;;;;;;;;;;;;;;;;;;;;;;;;;;;;;;;;;;;;;;;;;;;;;;;;;;",
";;;;;;;;;;;;;-------;;;;;;;;;;;;;;;;;;;;;;;;;;;;;;;;;;;;;;;;;;;;;;;;;;;;;-------;;;;;;;;;;;;;;;;;;;;;;;;;;;;;;;;;;;;;;;;",
";;;;;;;;;;;;&&--&----;;;;;;;;;;;;;;;;;;;;;;-------;;;;;;;;;;;;;;;;;;;;;;&&--&----;;;;;;;;;;;;;;;;;;;;;;-------;;;;;;;;;;",
";;;;;;;;;;;&-----&&&&;;;;;;;;;;;;;;;;;;;;;&&--&----;;;;;;;;;;;;;;;;;;;;&-----&&&&;;;;;;;;;;;;;;;;;;;;;&&--&----;;;;;;;;;",
";;;;;;;;;;---------&&&;;;;;;;;;;;;;;;;;;;&-----&&&&;;;;;;;;;;;;;;;;;;;---------&&&;;;;;;;;;;;;;;;;;;;&-----&&&&;;;;;;;;;",
";;;;;;;;;;---%%%----&&;;;;;;;;;;;;;;;;;;---------&&&;;;;;;;;;;;;;;;;;;---%%%----&&;;;;;;;;;;;;;;;;;;---------&&&;;;;;;;;",
";;;;;;;;;--%.   .%---&;;;;;;;;;;;;;;;;;;---%%%----&&;;;;;;;;;;;;;;;;;--%.   .%---&;;;;;;;;;;;;;;;;;;---%%%----&&;;;;;;;;",
";;;;;;;;;-%.*. .*.%--&;;;;;;;;;;;;;;;;;--%.   .%---&;;;;;;;;;;;;;;;;;-%.*. .*.%--&;;;;;;;;;;;;;;;;;--%.   .%---&;;;;;;;;",
";;;;;;;;;-%******..--&;;;;;;;;;;;;;;;;;-%.*. .*.%--&;;;;;;;;;;;;;;;;;-%******..--&;;;;;;;;;;;;;;;;;-%.*. .*.%--&;;;;;;;;",
";;;;;;;;;-%=  =  =.--&;;;;;;;;;;;;;;;;;-%******..--&;;;;;;;;;;;;;;;;;-%=  =  =.--&;;;;;;;;;;;;;;;;;-%******..--&;;;;;;;;",
";;;;;;;;;;%=X==X==*-&;;;;;;;;;;;;;;;;;;-%=  =  =.--&;;;;;;;;;;;;;;;;;;%=X==X==*-&;;;;;;;;;;;;;;;;;;-%=  =  =.--&;;;;;;;;",
";;;;;;;;;;;=======&&;;;;;;;;;;;;;;;;;;;;%=X==X==*-&;;;;;;;;;;;;;;;;;;;;=======&&;;;;;;;;;;;;;;;;;;;;%=======*-&;;;;;;;;;",
";;;;;;;;;;;;======&;;;;;;;;;;;;;;;;;;;;;;=======&&;;;;;;;;;;;;;;;;;;;;;;======&;;;;;;;;;;;;;;;;;;;;;;=======&&;;;;;;;;;;",
";;;;;;;;;OOOo====oOOO;;;;;;;;;;;;;;;;;;OOO======&OO;;;;;;;;;;;;;;;;;;OOOo====oOOO;;;;;;;;;;;;;;;;;;OOO======&OO;;;;;;;;;",
";;;;;;;;$$OOOooooOOO#$;;;;;;;;;;;;;;;;$$OOO====OOO#$;;;;;;;;;;;;;;;;$$OOOooooOOO#$;;;;;;;;;;;;;;;;$$OOO====OOO#$;;;;;;;;",
";;;;;;;$$$#OOOooOOO#$$$;;;;;;;;;;;;;;$$$#OOOooOOO#$$$;;;;;;;;;;;;;;$$$#OOOooOOO#$$$;;;;;;;;;;;;;;$$$#OOOooOOO#$$$;;;;;;;",
";;;;;;;$$$##OOOOOO##$$$;;;;;;;;;;;;;;$$$##OOOOOO##$$$;;;;;;;;;;;;;;$$$##OOOOOO##$$$;;;;;;;;;;;;;;$$$##OOOOOO##$$$;;;;;;;",
";;;;;;;$$$###OOOO###$$$;;;;;;;;;;;;;;$$$###OOOO###$$$;;;;;;;;;;;;;;$$$###OOOO###$$$;;;;;;;;;;;;;;$$$###OOOO###$$$;;;;;;;",
";;;;;;;$$$##########$$$;;;;;;;;;;;;;;$$$##########$$$;;;;;;;;;;;;;;$$$##########$$$;;;;;;;;;;;;;;$$$##########$$$;;;;;;;",
";;;;;;;$$$@###@O###@$$$;;;;;;;;;;;;;;$$$@###@O###@$$$;;;;;;;;;;;;;;$$$@###@O###@$$$;;;;;;;;;;;;;;$$$@###@O###@$$$;;;;;;;",
";;;;;;;$$$;@@@@@@@@;$$$;;;;;;;;;;;;;;$$$;@@@@@@@@;$$$;;;;;;;;;;;;;;$$$;@@@@@@@@;$$$;;;;;;;;;;;;;;$$$;@@@@@@@@;$$$;;;;;;;",
";;;;;;;$$$;$+@@O@@$;$$$;;;;;;;;;;;;;;$$$;$+@@O@@$;$$$;;;;;;;;;;;;;;$$$;$+@@O@@$;$$$;;;;;;;;;;;;;;$$$;$+@@O@@$;$$$;;;;;;;",
";;;;;;;$$$;o$$$$$$o;$$$;;;;;;;;;;;;;;$$$;o$$$$$$o;$$$;;;;;;;;;;;;;;$$$;o$$$$$$o;$$$;;;;;;;;;;;;;;$$$;o$$$$$$o;$$$;;;;;;;",
";;;;;;;$*==#oooooo#==*$;;;;;;;;;;;;;;$*==#oooooo#==*$;;;;;;;;;;;;;;$*==#oooooo#==*$;;;;;;;;;;;;;;$*==#oooooo#==*$;;;;;;;",
";;;;;;;;*===;;;;;;===*;;;;;;;;;;;;;;;;*===;;;;;;===*;;;;;;;;;;;;;;;;*===;;;;;;===*;;;;;;;;;;;;;;;;*===;;;;;;===*;;;;;;;;",
";;;;;;;;**==;;;;;;==**;;;;;;;;;;;;;;;;**==;;;;;;==**;;;;;;;;;;;;;;;;**==;;;;;;==**;;;;;;;;;;;;;;;;**==;;;;;;==**;;;;;;;;",
";;;;;;;;;***;;;;;;***;;;;;;;;;;;;;;;;;;***;;;;;;***;;;;;;;;;;;;;;;;;;***;;;;;;***;;;;;;;;;;;;;;;;;;***;;;;;;***;;;;;;;;;",
";;;;;;;;;;;;;;;;;;;;;;;;;;;;;;;;;;;;;;;;;;;;;;;;;;;;;;;;;;;;;;;;;;;;;;;;;;;;;;;;;;;;;;;;;;;;;;;;;;;;;;;;;;;;;;;;;;;;;;;;"
};
